<?xml version="1.0" encoding="UTF-8" standalone="no"?>
<svg
   width="400"
   height="87"
   version="1.1"
   viewBox="0 0 400 87"
   id="svg147"
   sodipodi:docname="atmos.svg"
   inkscape:version="1.2 (dc2aedaf03, 2022-05-15)"
   xml:space="preserve"
   xmlns:inkscape="http://www.inkscape.org/namespaces/inkscape"
   xmlns:sodipodi="http://sodipodi.sourceforge.net/DTD/sodipodi-0.dtd"
   xmlns="http://www.w3.org/2000/svg"
   xmlns:svg="http://www.w3.org/2000/svg"
   xmlns:rdf="http://www.w3.org/1999/02/22-rdf-syntax-ns#"
   xmlns:cc="http://creativecommons.org/ns#"
   xmlns:dc="http://purl.org/dc/elements/1.1/"><defs
     id="defs151" /><sodipodi:namedview
     id="namedview149"
     pagecolor="#ffffff"
     bordercolor="#000000"
     borderopacity="0.25"
     inkscape:showpageshadow="2"
     inkscape:pageopacity="0.0"
     inkscape:pagecheckerboard="0"
     inkscape:deskcolor="#d1d1d1"
     showgrid="false"
     inkscape:zoom="1.069499"
     inkscape:cx="-69.191275"
     inkscape:cy="104.72193"
     inkscape:window-width="1366"
     inkscape:window-height="705"
     inkscape:window-x="-8"
     inkscape:window-y="253"
     inkscape:window-maximized="1"
     inkscape:current-layer="svg147" /><title
     id="title143">Tokopedia textlogo</title><metadata
     id="metadata3347"><rdf:RDF><cc:Work
         rdf:about=""><dc:title>Tokopedia textlogo</dc:title></cc:Work></rdf:RDF></metadata><text
     xml:space="preserve"
     style="font-weight:bold;font-size:86.5912px;font-family:'Century Gothic';-inkscape-font-specification:'Century Gothic Bold';fill:#ea4335;fill-opacity:1;stroke-width:1.35299"
     x="1.3295218"
     y="73.670616"
     id="text4500"><tspan
       sodipodi:role="line"
       id="tspan4498"
       x="1.3295218"
       y="73.670616"
       style="stroke-width:1.35299;fill:#ea4335;fill-opacity:1"><tspan
   style="fill:#ea4335;fill-opacity:1"
   id="tspan5278">A</tspan><tspan
   style="fill:#ea4335;fill-opacity:1"
   id="tspan5382">t</tspan><tspan
   style="fill:#ea4335;fill-opacity:1"
   id="tspan5486">m</tspan><tspan
   style="fill:#ea4335;fill-opacity:1"
   id="tspan5590">o</tspan>s<tspan
   style="fill:#ea4335;fill-opacity:1"
   id="tspan5592">l</tspan><tspan
   style="fill:#ea4335;fill-opacity:1"
   id="tspan5594">a</tspan><tspan
   style="fill:#ea4335;fill-opacity:1"
   id="tspan5596">b</tspan></tspan></text><g
     id="g6725"
     transform="translate(4.1375674,-155.18203)"><path
       fill="#ea4335"
       d="m 115.75,47.18 c 0,12.77 -9.99,22.18 -22.25,22.18 C 81.24,69.36 71.25,59.95 71.25,47.18 71.25,34.32 81.24,25 93.5,25 c 12.26,0 22.25,9.32 22.25,22.18 z m -9.74,0 c 0,-7.98 -5.79,-13.44 -12.51,-13.44 -6.72,0 -12.51,5.46 -12.51,13.44 0,7.9 5.79,13.44 12.51,13.44 6.72,0 12.51,-5.55 12.51,-13.44 z"
       id="path6701" /><path
       fill="#fbbc05"
       d="m 163.75,47.18 c 0,12.77 -9.99,22.18 -22.25,22.18 -12.26,0 -22.25,-9.41 -22.25,-22.18 0,-12.85 9.99,-22.18 22.25,-22.18 12.26,0 22.25,9.32 22.25,22.18 z m -9.74,0 c 0,-7.98 -5.79,-13.44 -12.51,-13.44 -6.72,0 -12.51,5.46 -12.51,13.44 0,7.9 5.79,13.44 12.51,13.44 6.72,0 12.51,-5.55 12.51,-13.44 z"
       id="path6703" /><path
       fill="#4285f4"
       d="m 209.75,26.34 v 39.82 c 0,16.38 -9.66,23.07 -21.08,23.07 -10.75,0 -17.22,-7.19 -19.66,-13.07 l 8.48,-3.53 c 1.51,3.61 5.21,7.87 11.17,7.87 7.31,0 11.84,-4.51 11.84,-13 v -3.19 h -0.34 c -2.18,2.69 -6.38,5.04 -11.68,5.04 -11.09,0 -21.25,-9.66 -21.25,-22.09 0,-12.52 10.16,-22.26 21.25,-22.26 5.29,0 9.49,2.35 11.68,4.96 h 0.34 v -3.61 h 9.25 z m -8.56,20.92 c 0,-7.81 -5.21,-13.52 -11.84,-13.52 -6.72,0 -12.35,5.71 -12.35,13.52 0,7.73 5.63,13.36 12.35,13.36 6.63,0 11.84,-5.63 11.84,-13.36 z"
       id="path6705" /><path
       fill="#34a853"
       d="m 225,3 v 65 h -9.5 V 3 Z"
       id="path6707" /><path
       fill="#ea4335"
       d="m 262.02,54.48 7.56,5.04 c -2.44,3.61 -8.32,9.83 -18.48,9.83 -12.6,0 -22.01,-9.74 -22.01,-22.18 0,-13.19 9.49,-22.18 20.92,-22.18 11.51,0 17.14,9.16 18.98,14.11 L 270,41.62 240.35,53.9 c 2.27,4.45 5.8,6.72 10.75,6.72 4.96,0 8.4,-2.44 10.92,-6.14 z m -23.27,-7.98 19.82,-8.23 c -1.09,-2.77 -4.37,-4.7 -8.23,-4.7 -4.95,0 -11.84,4.37 -11.59,12.93 z"
       id="path6709" /><path
       fill="#4285f4"
       d="M 35.29,41.41 V 32 H 67 c 0.31,1.64 0.47,3.58 0.47,5.68 0,7.06 -1.93,15.79 -8.15,22.01 -6.05,6.3 -13.78,9.66 -24.02,9.66 C 16.32,69.35 0.36,53.89 0.36,34.91 0.36,15.93 16.32,0.47 35.3,0.47 c 10.5,0 17.98,4.12 23.6,9.49 L 52.26,16.6 C 48.23,12.82 42.77,9.88 35.29,9.88 c -13.86,0 -24.7,11.17 -24.7,25.03 0,13.86 10.84,25.03 24.7,25.03 8.99,0 14.11,-3.61 17.39,-6.89 2.66,-2.66 4.41,-6.46 5.1,-11.65 z"
       id="path6711" /></g><rect
     style="fill:#4285f4;fill-opacity:1"
     id="rect8466"
     width="25.245474"
     height="25.245464"
     x="-216.924"
     y="-106.59196" /><rect
     style="fill:#ea4335;fill-opacity:1"
     id="rect8468"
     width="25.245474"
     height="25.245464"
     x="-180.45833"
     y="-104.72192"
     inkscape:transform-center-x="49.555913"
     inkscape:transform-center-y="-1.8700345" /><rect
     style="fill:#fbbc05;fill-opacity:1"
     id="rect8470"
     width="25.245474"
     height="25.245464"
     x="-139.31757"
     y="-100.98185"
     inkscape:transform-center-x="49.555913"
     inkscape:transform-center-y="-1.8700345" /><rect
     style="fill:#34a853;fill-opacity:1"
     id="rect8679"
     width="25.245474"
     height="25.245464"
     x="-108.462"
     y="-100.98185"
     inkscape:transform-center-x="49.555913"
     inkscape:transform-center-y="-1.8700345" /></svg>
