<?xml version="1.0" encoding="UTF-8" standalone="no"?>
<svg
   width="400"
   height="87"
   version="1.1"
   viewBox="0 0 400 87"
   id="svg147"
   sodipodi:docname="candraloka.svg"
   inkscape:version="1.2 (dc2aedaf03, 2022-05-15)"
   xmlns:inkscape="http://www.inkscape.org/namespaces/inkscape"
   xmlns:sodipodi="http://sodipodi.sourceforge.net/DTD/sodipodi-0.dtd"
   xmlns="http://www.w3.org/2000/svg"
   xmlns:svg="http://www.w3.org/2000/svg"
   xmlns:rdf="http://www.w3.org/1999/02/22-rdf-syntax-ns#"
   xmlns:cc="http://creativecommons.org/ns#"
   xmlns:dc="http://purl.org/dc/elements/1.1/">
  <defs
     id="defs151" />
  <sodipodi:namedview
     id="namedview149"
     pagecolor="#ffffff"
     bordercolor="#000000"
     borderopacity="0.25"
     inkscape:showpageshadow="2"
     inkscape:pageopacity="0.0"
     inkscape:pagecheckerboard="0"
     inkscape:deskcolor="#d1d1d1"
     showgrid="false"
     inkscape:zoom="1.069499"
     inkscape:cx="97.241792"
     inkscape:cy="29.920551"
     inkscape:window-width="1366"
     inkscape:window-height="705"
     inkscape:window-x="-8"
     inkscape:window-y="253"
     inkscape:window-maximized="1"
     inkscape:current-layer="svg147" />
  <title
     id="title143">Tokopedia textlogo</title>
  <path
     d="m 187.71952,-97.952929 c -4.347,4.417 -9.548,6.637 -15.57,6.637 -4.874,0 -9.016,-0.9948 -13.24,-3.454 v -10.130001 c 3.401,2.309 7.673,4.508 11.89,4.508 8.792,0 14.02,-6.058 14.02,-14.64 0,-8.592 -5.412,-14.83 -14.21,-14.83 -3.928,0 -7.112,1.414 -9.599,4.248 -2.666,3.07 -4.044,7.458 -4.044,13.26 v 39.980001 h -0.6624 c -4.846,0 -8.771,-3.932 -8.771,-8.782 v -32.700001 c 0,-13.88 8.472,-25.08 23.03,-25.08 7.19,0 13.03,2.462 17.46,7.407 4.163,4.621 6.226,10.48 6.226,17.52 0,6.27 -2.177,11.63 -6.527,16.050001 z m 102.1,-0.3387 c -4.33,4.654 -9.903,6.976 -16.66,6.976 -7.132,0 -12.94,-2.462 -17.37,-7.407 -4.161,-4.678001 -6.225,-10.540001 -6.225,-17.520001 0,-12.36 9.528,-22.69 22.07,-22.69 4.836,0 9.035,1.022 13.28,3.352 v 10.23 c -3.401,-2.309 -7.672,-4.508 -11.89,-4.508 -8.792,0 -14.03,6.057 -14.03,14.65 0,8.471 5.539,14.83 14.21,14.83 3.925,0 7.157,-1.473 9.742,-4.439 2.569,-2.948 3.904,-7.279 3.904,-13.1 v -31.82 c 0,-4.852 3.928,-8.782 8.771,-8.782 h 0.6624 v 42.1 c 0,7.414 -2.143,13.48 -6.468,18.140001 z m 26.64,-45.130001 c -0.99,1.11 -2.409,1.621 -4.141,1.621 -3.238,0 -5.556,-2.391 -5.556,-5.609 0,-3.293 2.274,-5.516 5.556,-5.516 3.158,0 5.556,2.344 5.556,5.516 0,1.569 -0.4594,2.914 -1.415,3.988 z m 47.93,25.5 c 0,-3.724 -1.407,-6.671 -4.233,-8.905 -2.546,-2.01 -5.726,-3.032 -9.596,-3.032 -8.539,0 -14.02,6.683 -14.02,14.92 0,7.931 5.811,14.55 13.93,14.55 5.648,0 8.668,-3.303 11.89,-7.418 v 11.860001 c -1.641,1.231 -3.528,2.573 -5.455,3.361 -2.033,0.8498 -4.461,1.263 -7.265,1.263 -13.58,0 -22.53,-11.260001 -22.53,-24.270001 0,-6.682 2.073,-12.21 6.246,-16.51 4.428,-4.565 10.24,-6.829 17.35,-6.829 13.48,0 23.13,7.751 23.13,21.76 v 24.930001 h -0.66 c -4.848,0 -8.776,-3.932 -8.776,-8.783001 z m -129.1,-2.675 c -1.192,-3.692 -2.686,-5.508 -6.124,-7.43 -8.175,-4.574 -16.22,-0.6799 -19.96,7.394 z m -7.198,29.140001 c -6.026,1.282 -11.94,0.2936 -17.71,-2.935 -5.628,-3.146 -9.396,-7.825001 -11.28,-14.010001 -3.819,-12.5 4.004,-26.44 16.59,-29.81 6.237,-1.672 12.22,-0.9152 17.9,2.263 9.436,5.282 12.88,13.45 12.27,23.98 l -38.01,-0.0761 c 0.5603,4.293 3.218,7.652 6.955,9.741 3.788,2.119 7.271,2.626001 10.5,1.622 3.589,-1.128 6.499,-4.06 8.866,-6.789 l 7.746,5.65 c -3.159,5.660001 -7.46,9.010001 -13.83,10.370001 z m 79.55,-46.540001 h 9.433 v 45.750001 h -0.6636 c -4.841,0 -8.769,-3.932 -8.769,-8.783001 z m -320.000003,45.750001 c -9.227,0 -13.81,-6.284 -13.81,-15.060001 v -33.29 c 0,-4.851 3.928,-8.782 8.773,-8.782 h 0.6624 v 11.39 h 15.94000038 v 9.072 H -16.733083 v 22.67 c 0,3.854 1.718,4.937 5.396,4.937 h 10.54000038 v 9.071001 z m 54.79,-5.782 c -4.659999,4.474 -10.259999,6.715 -16.769999,6.715 -6.447001,0 -12.020001,-2.244 -16.6800006,-6.715 -4.676,-4.490001 -7.007,-10.200001 -7.007,-17.090001 0,-13.44 10.2499996,-23.81 23.6800006,-23.81 6.449,0 12.03,2.261 16.719999,6.765 4.706,4.518 7.056,10.22 7.056,17.04 0,6.887 -2.334,12.6 -7.01,17.090001 z m 44.11,-28.960001 c -1.384,2.324 -2.457,3.99 -3.212,4.997 -0.8322,1.095 -1.654,1.969 -2.468,2.574 6.556,2.12 8.998,6.668 8.998,13.44 v 13.730001 h -0.6624 c -4.844,0 -8.773,-3.932 -8.773,-8.783001 v -4.011 c 0,-4.387 -1.965,-7.363 -6.607,-7.363 h -8.567 v 20.160001 h -0.6624 c -4.844,0 -8.769,-3.932 -8.769,-8.783001 v -48.71 c 0,-4.852 3.924,-8.782 8.769,-8.782 h 0.6624 v 36.96 h 2.788 c 3.064,0 5.077,-1.049 6.233,-3.034 l 7.924,-13.39 10.75,-0.0107 z m 48.700003,28.960001 c -4.662,4.474 -10.26,6.715 -16.77,6.715 -6.446,0 -12.02,-2.244 -16.68,-6.715 -4.676003,-4.490001 -7.007003,-10.200001 -7.007003,-17.090001 0,-13.44 10.250003,-23.81 23.680003,-23.81 6.451,0 12.03,2.261 16.72,6.765 4.706,4.518 7.055,10.22 7.055,17.04 0,6.887 -2.333,12.6 -7.009,17.090001 z m -6.809,-27.740001 c -2.601,-2.723 -5.902,-4.09 -9.962,-4.09 -8.681,0 -13.88,6.337 -13.88,14.74 0,8.283 5.32,14.74 13.88,14.74 8.561,0 13.88,-6.453 13.88,-14.74 0,-4.398 -1.32,-7.927 -3.917,-10.65 z m -92.800002,0 c -2.6,-2.723 -5.902,-4.09 -9.961,-4.09 -8.681001,0 -13.880001,6.337 -13.880001,14.74 0,8.283 5.32,14.74 13.880001,14.74 8.56,0 13.88,-6.453 13.88,-14.74 0,-4.398 -1.319,-7.927 -3.917,-10.65 z"
     style="fill:#42b549;fill-rule:evenodd;stroke-width:2.837"
     id="path145" />
  <text
     xml:space="preserve"
     style="font-weight:bold;font-size:89.076px;font-family:'Century Gothic';-inkscape-font-specification:'Century Gothic Bold';fill:#42b549;stroke-width:1.39181;fill-opacity:1"
     x="-0.37581304"
     y="64.542061"
     id="text482"
     transform="scale(0.79978949,1.250329)"><tspan
       sodipodi:role="line"
       id="tspan480"
       x="-0.37581304"
       y="64.542061"
       style="stroke-width:1.39181;fill:#42b549;fill-opacity:1">candraloka</tspan></text>
  <metadata
     id="metadata3347">
    <rdf:RDF>
      <cc:Work
         rdf:about="">
        <dc:title>Tokopedia textlogo</dc:title>
      </cc:Work>
    </rdf:RDF>
  </metadata>
</svg>
