<?xml version="1.0" encoding="UTF-8" standalone="no"?>
<svg
   width="119"
   height="28"
   version="1.1"
   viewBox="0 0 119 28"
   id="svg12"
   sodipodi:docname="gaya-baru.svg"
   inkscape:version="1.2 (dc2aedaf03, 2022-05-15)"
   xmlns:inkscape="http://www.inkscape.org/namespaces/inkscape"
   xmlns:sodipodi="http://sodipodi.sourceforge.net/DTD/sodipodi-0.dtd"
   xmlns="http://www.w3.org/2000/svg"
   xmlns:svg="http://www.w3.org/2000/svg"
   xmlns:rdf="http://www.w3.org/1999/02/22-rdf-syntax-ns#"
   xmlns:cc="http://creativecommons.org/ns#"
   xmlns:dc="http://purl.org/dc/elements/1.1/">
  <defs
     id="defs16" />
  <sodipodi:namedview
     id="namedview14"
     pagecolor="#ffffff"
     bordercolor="#000000"
     borderopacity="0.25"
     inkscape:showpageshadow="2"
     inkscape:pageopacity="0.0"
     inkscape:pagecheckerboard="0"
     inkscape:deskcolor="#d1d1d1"
     showgrid="false"
     inkscape:zoom="2.5420168"
     inkscape:cx="90.08595"
     inkscape:cy="47.993388"
     inkscape:window-width="1920"
     inkscape:window-height="1017"
     inkscape:window-x="1358"
     inkscape:window-y="-8"
     inkscape:window-maximized="1"
     inkscape:current-layer="svg12" />
  <title
     id="title2">Gojek logo (2019</title>
  <text
     xml:space="preserve"
     style="font-weight:bold;font-size:64px;font-family:Tahoma;-inkscape-font-specification:'Tahoma Bold';fill:#ff00ff;fill-opacity:0.235915"
     x="72.776855"
     y="16.915703"
     id="text356"><tspan
       sodipodi:role="line"
       id="tspan354"
       x="72.776855"
       y="16.915703" /></text>
  <g
     id="g1211">
    <path
       d="m 8.3765959,15.966942 c 0,-2.89 2.3500001,-5.23 5.2500001,-5.23 2.899999,0 5.249999,2.34 5.249999,5.23 0,2.89 -2.35,5.23 -5.249999,5.23 -2.9,0 -5.2500001,-2.34 -5.2500001,-5.23"
       fill="#00aa13"
       id="path4"
       style="fill:#c83737" />
    <path
       d="m 1.3915096,21.287813 c 3.2819241,6.998706 11.5936424,10.026219 18.5289714,6.774015 5.233183,-2.454014 8.201734,-7.71178 8.032543,-13.254295 a 2.62,2.62 0 0 0 -3.244455,-2.443686 2.61,2.61 0 0 0 -1.99048,2.656405 l -9.05e-4,4.25e-4 c 0.14227,3.412427 -1.721907,6.738571 -4.999439,8.275513 C 13.353741,25.342616 8.1583859,23.449289 6.1077133,19.07623 4.057042,14.703171 5.9237701,9.4982003 10.287776,7.4517741 c 3.27753,-1.5369425 7.0268,-0.8431321 9.559317,1.4484318 l 0.0019,-8.516e-4 a 2.61,2.61 0 0 0 4.12528,-3.0500324 2.72,2.72 0 0 0 -0.61261,-0.8282625 C 19.253955,1.3254234 13.300118,0.24061483 8.0307169,2.7116107 1.0591735,5.9807977 -1.8922249,14.289958 1.3896987,21.288662"
       fill="#00aa13"
       id="path6"
       style="fill:#d45500" />
    <text
       xml:space="preserve"
       style="font-weight:bold;font-size:22.3901px;font-family:Tahoma;-inkscape-font-specification:'Tahoma Bold';fill:#000000;fill-opacity:1;stroke-width:0.349846"
       x="41.673462"
       y="17.503258"
       id="text360"
       transform="scale(0.76445329,1.3081244)"><tspan
         sodipodi:role="line"
         id="tspan358"
         x="41.673462"
         y="17.503258"
         style="font-style:normal;font-variant:normal;font-weight:bold;font-stretch:normal;font-family:'Century Gothic';-inkscape-font-specification:'Century Gothic Bold';fill:#000000;fill-opacity:1;stroke-width:0.349846">gaya baru</tspan></text>
  </g>
  <metadata
     id="metadata1576">
    <rdf:RDF>
      <cc:Work
         rdf:about="">
        <dc:title>Gojek logo (2019</dc:title>
      </cc:Work>
    </rdf:RDF>
  </metadata>
</svg>
